<svg xmlns="http://www.w3.org/2000/svg" width="64" height="64" viewBox="0 0 64 64">
  <defs>
  <linearGradient id="g" x1="0%" y1="41%" x2="100%" y2="59%">
    <stop offset="0%"  stop-color="#8D4CB2"/>
    <stop offset="22%" stop-color="#6954BD"/>
    <stop offset="46%" stop-color="#0069D4"/>
    <stop offset="70%" stop-color="#00A7E2"/>
    <stop offset="100%" stop-color="#20C58C"/>
  </linearGradient></defs>
  <rect width="64" height="64" rx="18" fill="url(#g)"/>
  <g transform="translate(12.16 22.08) scale(0.3968)"><path fill="#fff" d="M28 8C15 8 6 16 6 25s9 17 22 17c9 0 15-5 22-13 7 8 13 13 22 13 13 0 22-8 22-17S85 8 72 8c-9 0-15 5-22 13C43 13 37 8 28 8zm0 9c4 0 8 3 13 8-5 5-9 8-13 8-6 0-10-3-10-8s4-8 10-8zm44 0c6 0 10 3 10 8s-4 8-10 8c-4 0-8-3-13-8 5-5 9-8 13-8z"/></g>
</svg>
